<svg width="170" height="170" viewBox="0 0 170 170" fill="none" xmlns="http://www.w3.org/2000/svg">
<path d="M144.228 136.701C150.833 136.701 156.188 130.61 156.188 123.096C156.188 115.582 150.833 109.491 144.228 109.491C137.622 109.491 132.268 115.582 132.268 123.096C132.268 130.61 137.622 136.701 144.228 136.701Z" fill="white"/>
<path d="M144.229 139.48C130.052 139.48 118.559 149.913 118.559 162.782C118.558 172.271 169.9 172.271 169.9 162.782C169.9 149.913 158.407 139.48 144.229 139.48Z" fill="white"/>
<path d="M84.9504 136.701C91.5558 136.701 96.9106 130.61 96.9106 123.096C96.9106 115.582 91.5558 109.491 84.9504 109.491C78.345 109.491 72.9902 115.582 72.9902 123.096C72.9902 130.61 78.345 136.701 84.9504 136.701Z" fill="white"/>
<path d="M59.2793 162.782C59.2791 172.271 110.62 172.271 110.621 162.782C110.621 149.913 99.1275 139.48 84.9501 139.48C70.7726 139.48 59.2795 149.913 59.2793 162.782Z" fill="white"/>
<path d="M25.6711 136.701C32.2765 136.701 37.6313 130.61 37.6313 123.096C37.6313 115.582 32.2765 109.491 25.6711 109.491C19.0657 109.491 13.7109 115.582 13.7109 123.096C13.7109 130.61 19.0657 136.701 25.6711 136.701Z" fill="white"/>
<path d="M3.34866e-09 162.782C0.000226535 172.271 51.3415 172.271 51.3413 162.782C51.3411 149.913 39.8481 139.48 25.6705 139.48C11.493 139.48 -0.000226528 149.913 3.34866e-09 162.782Z" fill="white"/>
<path d="M168.011 0H71.8753C71.3746 0 70.8945 0.198889 70.5405 0.552913C70.1864 0.906938 69.9875 1.3871 69.9875 1.88776V63.64C72.4201 63.7608 75.062 63.9639 77.5386 64.2929V7.55105H162.348V86.8371H77.5386V80.5483C78.647 80.3904 79.6634 80.2335 80.5055 80.0891C81.3221 79.9637 82.0718 79.5644 82.6315 78.9567C83.1912 78.349 83.5276 77.569 83.5856 76.7449L108.79 58.6745C109.391 58.2325 109.794 57.5713 109.91 56.8344C110.026 56.0975 109.847 55.3445 109.412 54.7389C108.976 54.1333 108.319 53.7241 107.583 53.6001C106.848 53.4761 106.093 53.6474 105.483 54.0767L79.9576 72.3768C74.2119 71.3852 68.3866 70.929 62.5565 71.0142C62.1763 68.3108 57.0237 53.5817 52.1351 48.583C49.3903 45.7763 42.8281 43.1158 35.8914 42.1172C31.9462 41.5754 27.9455 41.5754 24.0003 42.1172C17.0631 43.1127 10.5014 45.7763 7.7566 48.583C0.176042 56.3349 -0.138517 79.0147 0.0290218 94.3881H9.32727C10.8348 84.1351 12.211 80.2419 13.2565 69.3564L14.5942 82.0592C14.6449 82.9655 14.6595 83.8731 14.638 84.7819L14.4117 94.3881H45.4801L45.2538 84.7819C45.2326 83.874 45.2472 82.9664 45.2976 82.059L46.6354 69.3564C47.0668 70.7164 54.5706 79.6564 58.9478 81.2688C60.8082 81.9542 65.3406 81.8287 69.9874 81.421V92.5004C69.9874 93.001 70.1863 93.4812 70.5403 93.8352C70.8944 94.1893 71.3745 94.3881 71.8752 94.3881H168.011C168.512 94.3881 168.992 94.1893 169.346 93.8352C169.7 93.4812 169.899 93.001 169.899 92.5004V1.88776C169.899 1.3871 169.7 0.906938 169.346 0.552913C168.992 0.198889 168.512 0 168.011 0Z" fill="white"/>
<path d="M29.9474 36.0479C36.851 36.0479 42.4474 29.9495 42.4474 22.4268C42.4474 14.9041 36.851 8.80579 29.9474 8.80579C23.0437 8.80579 17.4473 14.9041 17.4473 22.4268C17.4473 29.9495 23.0437 36.0479 29.9474 36.0479Z" fill="white"/>
</svg>
